<svg width="1200" height="630" viewBox="0 0 1200 630" xmlns="http://www.w3.org/2000/svg">
  <!-- Background -->
  <rect width="1200" height="630" fill="#ffffff"/>

  <!-- Primary color accent bar -->
  <rect x="0" y="0" width="8" height="630" fill="#00D372"/>

  <!-- Logo (centered) -->
  <g transform="translate(150, 215) scale(0.25)">
    <path d="M1086.96,1424.17C1086.96,1447.93 1067.7,1467.19 1043.94,1467.19L610.293,1467.19C586.535,1467.19 567.275,1447.93 567.275,1424.17C567.275,1347.9 567.275,1189.83 567.275,1113.56C567.275,1089.8 548.015,1070.54 524.257,1070.54C515.748,1070.54 506.815,1070.54 498.305,1070.54C474.547,1070.54 455.288,1051.28 455.288,1027.53L455.288,701.916C455.288,690.507 459.82,679.566 467.887,671.498C475.955,663.431 486.896,658.899 498.305,658.899C613.611,658.899 928.64,658.899 1043.94,658.899C1055.35,658.899 1066.3,663.431 1074.36,671.498C1082.43,679.566 1086.96,690.507 1086.96,701.916C1086.96,841.998 1086.96,1284.09 1086.96,1424.17Z" fill="#303030"/>
    <path d="M466.154,749.505C498.429,749.536 530.705,749.693 562.98,749.499C569.753,749.371 575.818,743.63 575.951,736.527C575.994,729.473 575.995,722.419 575.951,715.365C575.822,708.549 569.976,702.446 562.807,702.4L538.981,702.4L538.981,696.15C547.009,696.15 555.038,696.1 563.067,696.151C573.089,696.342 582.006,704.992 582.201,715.286C582.245,722.315 582.202,729.344 582.202,736.374C582.141,746.508 573.443,755.686 562.826,755.75L466.161,755.75L482.715,766.752L479.255,771.957L454.085,755.227C452.858,754.357 452.931,753.973 452.783,753.386C452.467,752.125 452.795,750.937 454.085,750.022L479.255,733.292C480.408,735.027 481.562,736.762 482.715,738.497L466.154,749.505Z" fill="white" transform="translate(446.251, 649.658)"/>
    <g transform="translate(80.512, 71.8619) scale(0.914693)">
      <path d="M537.492,901.819L537.492,754.485L570.002,754.485L570.002,916.552C570.002,928.189 570.322,936.49 570.963,941.455C571.603,946.419 572.724,950.236 574.326,952.905C577.742,959.204 582.68,963.955 589.139,967.158C595.598,970.361 607.792,971.963 616.974,971.963C626.262,971.963 638.482,970.361 644.888,967.158C651.294,963.955 656.259,959.204 659.782,952.905C661.383,950.236 662.504,946.446 663.145,941.535C663.785,936.624 664.106,928.403 664.106,916.872L664.106,754.485L696.455,754.485L696.455,901.819C696.455,926.268 694.934,943.644 691.891,953.946C688.848,964.249 683.59,972.763 676.117,979.49C669.07,985.789 661.01,990.486 651.935,993.582C642.86,996.679 628.291,998.227 616.974,998.227C605.763,998.227 591.248,996.679 582.173,993.582C573.098,990.486 564.984,985.789 557.831,979.49C550.464,972.87 545.233,964.302 542.136,953.786C539.04,943.27 537.492,925.947 537.492,901.819Z" fill="white"/>
    </g>
    <g transform="translate(151.035, 71.8619) scale(0.914693)">
      <path d="M723.311,754.485L905.717,754.485L905.717,781.709L830.929,781.709L830.929,993.582L798.419,993.582L798.419,781.709L723.311,781.709L723.311,754.485Z" fill="white"/>
    </g>
    <g transform="translate(-226.328, 388.625) scale(0.914693)">
      <rect x="975.54" y="928.883" width="56.371" height="64.699" fill="white"/>
    </g>
    <g transform="translate(-203.658, 384.377) scale(0.914693)">
      <path d="M1282.54,985.095C1274.32,989.472 1265.88,992.755 1257.24,994.944C1248.59,997.132 1239.41,998.227 1229.69,998.227C1199.05,998.227 1175.27,987.39 1158.35,965.717C1141.42,944.044 1132.96,913.563 1132.96,874.274C1132.96,835.198 1141.48,804.744 1158.51,782.91C1175.54,761.077 1199.26,750.161 1229.69,750.161C1239.41,750.161 1248.59,751.255 1257.24,753.444C1265.88,755.632 1274.32,758.915 1282.54,763.293L1282.54,796.443C1274.64,789.93 1266.15,784.966 1257.08,781.549C1248,778.133 1238.87,776.425 1229.69,776.425C1208.66,776.425 1192.91,784.539 1182.45,800.767C1171.99,816.995 1166.76,841.497 1166.76,874.274C1166.76,906.943 1171.99,931.392 1182.45,947.62C1192.91,963.849 1208.66,971.963 1229.69,971.963C1239.09,971.963 1248.3,970.254 1257.32,966.838C1266.34,963.422 1274.75,958.457 1282.54,951.944L1282.54,985.095Z" fill="white"/>
    </g>
  </g>

  <!-- Text content -->
  <g transform="translate(450, 0)">
    <text x="0" y="260" font-family="system-ui, -apple-system, sans-serif" font-size="52" font-weight="700" fill="#18181b">
      ut.code();
    </text>
    <text x="0" y="320" font-family="system-ui, -apple-system, sans-serif" font-size="28" fill="#71717a">
      東京大学ソフトウェアエンジニアリングサークル
    </text>
    <text x="0" y="380" font-family="system-ui, -apple-system, sans-serif" font-size="24" fill="#a1a1aa">
      The University of Tokyo
    </text>
  </g>

  <!-- Bottom accent -->
  <rect x="0" y="622" width="1200" height="8" fill="#00D372"/>
</svg>
